<!-- Generator: Adobe Illustrator 18.0.0, SVG Export Plug-In  -->
<svg version="1.1"
	 xmlns="http://www.w3.org/2000/svg" xmlns:xlink="http://www.w3.org/1999/xlink" xmlns:a="http://ns.adobe.com/AdobeSVGViewerExtensions/3.0/"
	 x="0px" y="0px" width="249.5px" height="249.5px" viewBox="0 0 249.5 249.5" enable-background="new 0 0 249.5 249.5"
	 xml:space="preserve">
<defs>
</defs>
<g>
	<defs>
		<rect id="SVGID_1_" x="0" width="249.5" height="249.5"/>
	</defs>
	<clipPath id="SVGID_2_">
		<use xlink:href="#SVGID_1_"  overflow="visible"/>
	</clipPath>
	<path clip-path="url(#SVGID_2_)" fill="#FFFFFF" d="M124.7,249.5c68.9,0,124.7-55.8,124.7-124.7S193.6,0,124.7,0S0,55.8,0,124.7
		S55.8,249.5,124.7,249.5"/>
	<path clip-path="url(#SVGID_2_)" fill="rgb(51, 122, 29)" d="M154.9,66.7c3.7,5.4,7.4,11,10.9,16.1h11.1C168.2,73.3,160.4,67.6,154.9,66.7
		 M164.5,167.3c-4.1,5.6-8.5,11.5-13.3,17.9c8.3-2.1,17.8-8.9,25.5-17.9H164.5z M158.6,82.9c-5.5-7.9-10.3-15.9-17.2-21.8
		c-3.7-0.7-7.1-1.3-10.5-1.9v23.7H158.6z M112.6,61.2c-6.4,6.1-13.2,12.5-17.2,21.5h28V59.1C120,59.8,116.8,60.4,112.6,61.2
		 M168.6,90.1c4.4,9.9,6.7,19.9,7,30.2c0.7,0.7,1.3,1.4,1.7,1.8h14c0.4-1.5,1.4-3.6,0.9-4.3c-1.3-1.7-1-3.4-1.3-5.1
		c-0.3-1.9-0.9-3.8-1.4-5.7c-1.4-6.2-4-11.8-7.6-16.8H168.6z M182,160c6.8-8.9,8-19.6,10.4-29.9c-0.8-0.8-1.4-1.4-2.1-2.1H176
		c-0.7,3.9-1.4,7.6-2,11.3c-0.8,5.6-2.4,11-4.6,16.3c-0.5,1.3-0.8,2.7-1.3,4.4H182z M206.2,132.1c-0.5,0.6-1.3,1.2-1.3,1.8
		c0,10-3.2,19.1-7.9,27.6c-4.3,7.8-9,15.5-15.8,21.4c-6.3,5.4-13,10.5-20.8,14c-5.9,2.7-12,5.7-18.3,6.3c-5.8,0.6-11.7,2.4-17.6,1.7
		c-5.7-0.7-11.4-1.8-17-2.8c-0.5-0.1-1-1-1.9-2c-0.5-2.8-1.3-6.3-1.6-9.8c-0.3-3.4-0.1-6.9-0.1-11c5.3,2.1,7.5,6.8,12.1,9.9
		c1.6,0.5,4.1,1.2,7.1,2.1c0.7-5.8,0.1-11.3,0.5-16.8c2.2-0.4,4.3-0.8,6.8-1.3v17.7c2.8-0.7,5.1-1.2,8-1.9
		c8.3-7,13.9-14.6,17.5-21.8h-15.8c1.8-2.7,3.3-4.8,4.8-7.1h15.8c4.4-10.4,8.6-20.5,7.4-32.2h-14.6c-1.4-2.5-0.5-4.1,1.7-5.8h12.5
		c0.7-0.7,1.2-1.2,1.2-1.2c-0.7-10.7-2-20.9-7.1-30.6h-31.1c-0.9,3.7,0.2,7.9-0.5,11.8c-1.5,2.6-3.9,1.9-6.7,1.8V90.4
		c-18.9-1-29.8-0.7-33.8,1c-2.3-1.6-5.1-2.7-6.6-4.7c-1.6-2.2-4.7-1.2-5.9-3.6h10.5c3.2-4.5,4.7-9.5,8.6-12.9
		c0.5-0.4,0.4-1.7,0.4-2.6c0,0,0.1,0.1,0.2,0.2c0.4-0.3,0.8-0.6,1.1-1c-0.1-0.1-0.3-0.3-0.4-0.4c-0.3,0.4-0.6,0.8-0.9,1.2
		c-0.8,0.2-1.8,0.2-2.5,0.6c-6.9,3.6-12.4,8.7-17,14.9c-1.7-0.5-3.5-0.7-5-1.5c-2.6-1.5-5-3.4-7.6-5.1c1.7-2.7,11.1-12.6,13.5-14.4
		c5.1-3.8,10.9-6.4,16.3-9.6c3.6-2.1,7.6-3.5,11.5-4.2c7-1.2,14-3.6,21.2-2.9c12.4,1.2,24.8,2.8,36,9.4c7.8,4.6,15.5,9.2,21.3,16
		c6.1,7.2,11.9,14.8,15.3,23.7c2.6,6.7,5.3,13.6,4.9,21.1c-0.1,1-0.6,2.5,1.4,2.5V132.1z"/>
	<path clip-path="url(#SVGID_2_)" fill="rgb(51, 122, 29)" d="M26.9,90.1c0.5-0.6,1.3-1.2,1.3-1.8c0-9.1,3.6-17,7.8-24.8
		c0.3-0.5,0.9-0.9,1.6-1.5c2.5,7.4,7,12.9,13.6,16.8c3,1.8,6.3,3.1,9.5,4.2c7.6,2.6,14.6,6.3,20.3,11.7c7.5,7,11.5,15.9,11.9,26.6
		c0.4,9.2-2.2,17.6-4.8,26.1c-0.4,1.2-0.9,2.5-0.9,3.8c-0.1,10.5,0,21,0,31.5c0,0.4,0.3,0.8,0.7,1.5c1.2-2.7,2.8-5.1,3.2-7.7
		c1.5-9.6,7.3-17.1,11.6-25.3c0.7-1.4,2.2-2.4,3.4-3.5c2.2-2,3.9-4.3,4.9-7.1c3.1,0.2,4.4-2,5.6-4.2c0.5-0.5,0.9-0.9,1.3-1.5
		c0,0,0.1,0.1,0.2,0.2c0.4-0.3,0.8-0.7,1.1-1c-0.1-0.1-0.3-0.3-0.4-0.4c-0.3,0.4-0.6,0.8-0.9,1.2c-0.4,0.5-0.9,1-1.3,1.5
		c-3.1-0.2-4.4,2-5.6,4.2c-1.9-0.5-3.1,0.7-4.1,2c-3.2,4-6.4,8-9.4,12.2c-1.5,2.1-2.4,4.6-4.4,8.3c-0.5-6-0.2-10.2,0.7-14.6
		c0.9-4.8,2.4-9.3,4-13.8c1.2-3.4,3.8-5.9,5.7-8.9c1.9-2.9,4.4-4.7,6.9-6.9c7.4-6.6,16.2-8.7,25.6-9.3c2.2-0.1,4.3-1.1,6.4-1.3
		c2.1-0.2,4.6-0.8,6.2,0.1c3.1,1.8,6.2,0.8,9.4,1.4c0.5,1.4-1,1.7-1.6,2.4c-0.5,0.8-1.2,1.4-1.9,2c-6.4,5.5-8.4,12.9-8.7,20.9
		c-0.1,4.9-1.6,9.6-2.5,14.3c-2,9.7-9,14-16.9,17.5c-2.7,1.2-5.9,1.8-9.2,1.6c-5.6-0.3-11.2-0.1-17.4-0.1c-1.3,2.9-2.7,6-4,8.9
		c-0.6,3.3-1.5,6.3-1.8,9.3c-0.3,3.2-0.1,6.5-0.1,9.8c-1.8-0.1-3.4,0.1-5.1-1.4c-2.2-2-5.1-3.2-7.9-4.8c2.9-6.7,2.3-13.5,1.5-20
		c-0.7-5.4-0.4-10.9-1.3-16.2c-1.3-8.2-2.4-16.5-5.6-24.3c-2.7-6.8-5.3-13.8-11.2-18.7c0,0,0.1-0.1,0.2-0.2c-0.3-0.4-0.6-0.8-1-1.1
		c-0.1,0.1-0.3,0.3-0.4,0.4c0.4,0.3,0.8,0.6,1.2,0.9c0.6,4.1,3.4,7.4,5,11.1c2.6,6.1,5,12.2,4.9,18.9c0,2-0.3,3.8,1.2,5.8
		c1,1.3,0.2,3.9,0.2,6.2c-7.6-2.1-14.8-3.6-21.3-7.1c-11.8-6.3-20.4-15.6-24.5-28.4c-1.2-3.9-2.7-8.1-1.9-12.5
		c0.2-1,0.6-2.5-1.4-2.5V90.1z"/>
	<path clip-path="url(#SVGID_2_)" fill="rgb(51, 122, 29)" d="M53.5,153.4c7.1,2.9,13.8,5.7,20.8,8.6v21.8C63,174,54.6,161.7,53.5,153.4"/>
	<path clip-path="url(#SVGID_2_)" fill="#FFFFFF" d="M94.3,196.4c0.4,0.3,0.8,0.6,1.1,1c-0.1,0.1-0.3,0.3-0.4,0.4
		c-0.3-0.4-0.7-0.8-1-1.1C94.1,196.6,94.2,196.5,94.3,196.4"/>
</g>
</svg>
