<!-- Generator: Adobe Illustrator 18.0.0, SVG Export Plug-In  -->
<svg version="1.1"
	 xmlns="http://www.w3.org/2000/svg" xmlns:xlink="http://www.w3.org/1999/xlink" xmlns:a="http://ns.adobe.com/AdobeSVGViewerExtensions/3.0/"
	 x="0px" y="0px" width="250.5px" height="250.5px" viewBox="0 0 250.5 250.5" enable-background="new 0 0 250.5 250.5"
	 xml:space="preserve">
<defs>
</defs>
<g>
	<defs>
		<rect id="SVGID_1_" y="0" width="250.5" height="250.5"/>
	</defs>
	<clipPath id="SVGID_2_">
		<use xlink:href="#SVGID_1_"  overflow="visible"/>
	</clipPath>
	<path clip-path="url(#SVGID_2_)" fill="rgb(157, 111, 51)" d="M125.2,250.5c69.2,0,125.2-56.1,125.2-125.2S194.4,0,125.2,0S0,56.1,0,125.2
		S56.1,250.5,125.2,250.5"/>
	<path clip-path="url(#SVGID_2_)" fill="#FFFFFF" d="M129.3,18.6V23c16.4,3.6,27.7,12.8,33.2,28.6c0.6,1.7,1.4,3.5,1.4,5.3
		c-0.1,5.2,1.5,9.3,8,12.2c-3.7,2.5-6.2,5-9.3,6c-6.4,2-13,4-19.7,4.7c-17,1.8-34.1,2-50.8-2.4c-5.3-1.4-10.5-3.2-14.1-8.6
		c4.9-2.5,5.6-7,6.5-11.8c3.3-16.8,13.7-27.5,29.9-32.6c1.6-0.5,3.1-0.9,4.9-1.3c0.1-1.5,0.1-3,0.2-4.5H129.3z"/>
	<path clip-path="url(#SVGID_2_)" fill="#FFFFFF" d="M135,157.1c3.7-2.3,6.8-4.2,10.3-6.3c-1.3-5.3-2.7-10.7-4.2-16.9
		c4.7,0.8,8.9,1.4,13,2.3c14.6,3.3,27.9,9.5,38.8,19.9c1.6,1.5,2.9,4.2,2.8,6.3c-0.1,6.8-0.6,13.6-1.5,20.3
		c-1.6,12.6-9.2,21-20.1,26.5c-11.1,5.6-23.2,7.3-36.2,8c0.3-4.7,0.8-9.1,1-13.5c0.3-6.1,0.4-12.3,0.6-18.4
		C139.7,175.7,141.9,165.8,135,157.1"/>
	<path clip-path="url(#SVGID_2_)" fill="#FFFFFF" d="M107.5,134.4c-1.4,5.5-2.7,10.8-4.1,16.3c3.3,2.1,6.5,4,9.7,6.1
		c-8.9,18-2.9,36.7-3.2,55c0,1.3,0.3,2.6,0.4,4c0,0.3-0.1,0.6-0.3,1.6c-18.5-1.9-36.9-3.5-49.7-19.9c-6.1-7.8-6-17.3-7.4-26.4
		c-1.5-9.3,1.9-15.5,9.6-20.7c13-8.7,27.1-13.8,42.4-16C105.6,134.2,106.4,134.4,107.5,134.4"/>
	<path clip-path="url(#SVGID_2_)" fill="#FFFFFF" d="M124.5,131.3c-7.4,0.2-14-2.4-18.8-7.7c-4.3-4.9-7.7-10.7-11-16.4
		c-1.5-2.6-1.9-5.6-5.2-7.2c-3.1-1.5-4.9-12.1-2.5-14.1c1.9-1.5,5.3-2.4,7.7-1.9c20,3.6,39.9,3.7,59.8-0.2c2.2-0.4,5.9,0.9,7.2,2.7
		c2.4,3.2-0.1,11.7-3,14.2c-1.7,1.5-3.5,3.4-4.3,5.4c-3.1,7.9-7.1,15.2-14.3,19.8c-4.6,2.9-10,4.5-15.1,6.7
		C124.9,132.2,124.7,131.8,124.5,131.3"/>
	<path clip-path="url(#SVGID_2_)" fill="#FFFFFF" d="M124.8,133.9c4.6,3.3,6.5,6.9,3.9,13c-1.5,3.6-0.3,8.4,0.1,12.6
		c2,18.6,4.2,37.2,6.4,55.8c0.1,0.6-0.1,1.3-0.2,2.2h-21.7c1.5-13.6,3-26.7,4.5-39.9c1-8.9,2.1-17.8,3-26.7c0.1-1.4-0.2-3-0.6-4.3
		C117.8,139,117.7,139,124.8,133.9"/>
</g>
</svg>
