<!-- Generator: Adobe Illustrator 18.0.0, SVG Export Plug-In  -->
<svg version="1.1"
 xmlns="http://www.w3.org/2000/svg" xmlns:xlink="http://www.w3.org/1999/xlink" xmlns:a="http://ns.adobe.com/AdobeSVGViewerExtensions/3.0/"
 x="0px" y="0px" width="250.5px" height="250.5px" viewBox="0 0 250.5 250.5" enable-background="new 0 0 250.5 250.5"
 xml:space="preserve">
<defs>
</defs>
<g>
<defs>
  <rect id="SVGID_1_" y="0" width="250.5" height="250.5"/>
</defs>
<clipPath id="SVGID_2_">
  <use xlink:href="#SVGID_1_"  overflow="visible"/>
</clipPath>
<path clip-path="url(#SVGID_2_)" fill="#E74E0F" d="M125.2,250.5c69.2,0,125.2-56.1,125.2-125.2S194.4,0,125.2,0S0,56.1,0,125.2
  S56.1,250.5,125.2,250.5"/>
<path clip-path="url(#SVGID_2_)" fill="#FFFFFF" d="M124.1,164.4c3.1-0.1,5.1-0.1,7.3-0.6c2.7-0.6,7.6-1.7,10.9-3.1
  c5.1-2.2,9.7-5.2,13.7-9.3c4.4-4.4,7.4-9.6,9.7-15.4c0.9-2.2,1.7-4.6,2-7c0.3-2.5,1.1-5,0.7-7.5c-0.2-2.1-0.1-4.2-0.5-6.3
  c-0.4-2.1-0.8-4.2-1.4-6.3c-1.5-5.6-4.3-10.7-7.9-15.1c-3.3-4.1-7.4-7.5-12-10c-2.8-1.6-5.8-2.7-8.8-3.7c-3.1-1.1-6.3-1.3-9.5-1.8
  c-2.1-0.3-4.5-0.6-6.5,0.1c-2,0.7-4.1,0.4-6.1,1c-6.2,1.8-10.8,3.5-16.7,7.9c-4.7,3.5-8.4,7.8-11.2,12.8
  c-3.6,6.4-5.5,13.4-5.6,20.8c0,1.9-0.2,3.8,0.5,5.7c0.5,1.2,0.2,2.7,0.6,4.1c1.7,7,3.7,11.3,8,17c3.6,4.9,8.1,8.6,13.4,11.4
  C110.9,162.5,117.7,164.3,124.1,164.4 M174.4,184.8c-5.3-3.8-10.7-7.6-16.1-11.3c-3.5,1.4-6.3,3.5-9.6,4.7
  c-3.2,1.2-6.4,2.1-9.9,3.3c-0.2,1-0.2,2.1-0.6,3.3c-0.8,2.8-0.6,5.9-1.8,8.6c-0.3,0.7,0,1.6-0.1,2.5c-0.1,0.8-0.6,1.5-0.6,2.2
  c0,1.2-0.5,2.1-0.9,3.1h-20.2c-1.1-6.6-2.2-13.1-3.3-19.7c-6.8-1.5-13.1-4.1-19.1-8c-5.6,3.8-11.1,7.6-16.3,11.4
  c-4.8-4.8-9.5-9.5-14.5-14.5c3.2-5.2,7.5-10.5,11.4-16.2c-3.6-5.8-6.4-12.1-7.8-18.9c-1.1-0.8-2.5-0.6-3.7-0.9
  c-2.8-0.7-5.6-0.8-8.4-1.6c-2.3-0.7-4.7-0.7-7.1-0.9c-0.2-0.2-0.5-0.5-0.7-0.7v-20.2c6.6-1.1,13.1-2.2,19.8-3.3
  c1.5-6.7,4-13.1,8-19c-1.8-2.8-3.4-5.8-5.5-8.3c-2.2-2.6-3.5-5.8-5.8-7.9c4.8-4.8,9.6-9.6,14.6-14.6c5.2,3,10.2,7.5,16,11.2
  c3.2-1.3,6-3.4,9.3-4.6c3.2-1.2,6.4-2.3,10-3.2c1.1-6.4,2.2-13,3.4-19.7h20.1c1.4,1.3,0.8,3.3,1.4,4.9c0.7,1.7,0.5,3.7,0.7,5.6
  c0,0.2-0.1,0.5,0,0.6c1.1,1.1,0.3,2.5,0.9,3.7c0.2,0.4,0.3,0.9,0.3,1.4c0.2,1.2,0.4,2.3,0.5,3.4c7,1.6,13.3,4.1,19.2,8
  c5.6-4,11.1-7.8,16.4-11.6c4.9,4.9,9.7,9.7,14.5,14.5c-3.7,5.4-7.7,10.7-11.5,16.5c3.8,5.8,6.4,12.1,8,19c6.3,1.5,13,2.1,19.9,3.6
  c0,3.3,0.1,7,0,10.6c-0.1,3.4,0.7,7-0.4,10c-6.8,1.2-13.1,2.3-19.3,3.3c-1.1,3.6-2,6.9-3.3,10.1c-1.3,3.3-3.3,6.1-4.6,9.3
  c3.9,5.5,7.7,10.9,11.4,16.1C184,175.3,179.3,180,174.4,184.8"/>
<path clip-path="url(#SVGID_2_)" fill="#FFFFFF" d="M140.2,121.4c0.2-8.8-6.5-15.1-14.7-15.2c-8.9-0.1-15.1,6.5-15.3,14.7
  c-0.2,9,6.6,15.3,14.9,15.4C133.7,136.3,140.1,129.7,140.2,121.4 M125.6,152.5c-1.2,0-1.9,0.2-2.4,0c-2.3-1-4.9-0.5-7.2-1.4
  c-2.2-0.9-4.4-1.9-6.6-3c-0.9-0.4-1.7-1-2.4-1.7c-1.3-1.2-2.7-2.2-3.9-3.4c-1.8-1.8-3.3-4-4.7-6.1c-0.8-1.1-1.5-2.3-1.8-3.6
  c-0.5-2-1.8-3.8-1.8-5.8c0-2.3-1-4.4-0.7-6.6c0.1-0.5-0.1-1.1,0-1.5c1-2.3,0.4-5,1.3-7.3c0.9-2.2,2-4.4,3-6.5
  c0.5-1,1.1-1.8,1.8-2.7c1.1-1.3,2-2.9,3.3-3.9c2.1-1.4,3.7-3.4,5.9-4.6c1.3-0.7,2.6-1.3,3.9-1.9c1.3-0.5,2.5-0.9,3.9-1.3
  c2.7-0.7,5.4-1.1,8.2-1.3c0.6,0,1.3-0.2,1.9,0c2.3,1,4.9,0.5,7.2,1.4c2.2,0.9,4.4,1.9,6.6,3c0.9,0.4,1.7,1,2.4,1.7
  c1.3,1.2,2.7,2.2,3.9,3.4c1.8,1.8,3.3,4,4.7,6.1c0.8,1.1,1.5,2.3,1.8,3.6c0.5,2,1.8,3.8,1.8,5.8c0,2.3,1,4.4,0.7,6.6
  c-0.1,0.5,0.1,1.1,0,1.5c-1,2.3-0.4,5-1.3,7.3c-0.9,2.2-2,4.4-3,6.5c-0.5,1-1.1,1.8-1.8,2.7c-1.1,1.3-2,2.9-3.3,3.9
  c-2.1,1.4-3.7,3.4-5.9,4.6c-1.3,0.7-2.6,1.3-3.9,1.9c-1.2,0.5-2.6,0.9-3.8,1.3C130.6,152,127.7,151.9,125.6,152.5"/>
</g>
</svg>
