<!-- Generator: Adobe Illustrator 18.0.0, SVG Export Plug-In  -->
<svg version="1.1"
	 xmlns="http://www.w3.org/2000/svg" xmlns:xlink="http://www.w3.org/1999/xlink" xmlns:a="http://ns.adobe.com/AdobeSVGViewerExtensions/3.0/"
	 x="0px" y="0px" width="250px" height="225.6px" viewBox="0 0 250 225.6" enable-background="new 0 0 250 225.6"
	 xml:space="preserve">
<defs>
</defs>
<g>
	<path fill="#FFFFFF" d="M70.5,211.8c-0.6-0.7-1.5-1.1-2.3-1.7c-2.7-1.7-5.5-3-7.9-5.1c-0.4-0.3-0.9-0.5-1.2-0.9
		c-0.3-0.3-0.9,0-0.9-0.8c0-0.2-0.8-0.4-1.2-0.6c-0.7-0.4-1.1-1-1.8-1.4c-1.1-0.7-2-1.8-3.1-2.6c-1.7-1.3-3.1-2.9-4.7-4.3
		c-0.9-0.7-1.9-1.4-2.6-2.3c-1.4-1.8-3.1-3.3-4.6-5c-1.7-2-3.5-4-4.9-6.2c-0.8-1.3-2-2.3-2.7-3.7c-0.8-1.4-1.9-2.6-2.7-4
		c-1.2-2.1-2.2-4.2-3.8-6.1c-0.3-1.7-1.2-3.2-2.1-4.6c-0.8-1.3-0.9-3-2.2-4c0-0.8-0.2-1.6-0.7-2.3c-0.3-0.3-0.5-0.7-0.8-1.1
		c-1.8-0.2-3.6-0.6-5.3-1.5c-0.4-0.2-0.9-0.3-1.4-0.5c-1-0.4-1.9-1.1-2.9-1.7c-1.9-1-3.2-2.6-4.6-4c-1.6-1.5-2.6-3.3-3.6-5.9
		c-0.3-0.8-0.9-1.5-1.1-2.3c-0.4-1-0.7-2.1-0.8-3.2c-0.1-2-0.7-3.9-0.4-5.9c0.5-3,0.6-6,2-8.8c0.9-1.7,1.7-3.5,2.9-5.1
		c1.2-1.5,2.7-2.8,4.1-4.2c0.5-0.5,1.3-0.7,1.9-1.1c0.7-0.5,1.5-0.9,2.2-1.3c1.5-0.8,3.2-1.3,5-1.7c4.2-0.9,8.4-0.7,12.6-0.7
		c57.6,0,115.2,0,172.8,0c0.6,0,1.3,0,2.1,0c-0.2-1.6,0.2-3.2-0.4-4.8c-0.4-1.2-0.2-2.7-0.5-3.9c-0.4-1.6-0.7-3.2-1.1-4.8
		c-0.5-2.3-1.3-4.4-1.9-6.7c-0.4-1.4-0.8-2.8-1.3-4.2c-0.5-1.4-1.3-2.6-1.8-4c-0.7-1.9-1.9-3.4-2.7-5.2c-0.8-1.5-1.5-3-2.6-4.4
		c-1-1.3-1.9-2.8-2.9-4.1c-1.6-2.1-3.2-4.1-4.8-6c-1.8-2.1-3.8-4.1-5.8-6c-1.3-1.2-2.5-2.5-4.1-3.4c-0.6-1.3-2-1.5-2.9-2.4
		c-0.8-0.9-2-1.4-3-2.1c-1.1-0.7-2.1-1.6-3.2-2.2c-2.4-1.4-4.9-2.8-7.4-3.8c-1.3-0.5-2.5-1.2-3.9-1.6c-1.4-0.4-2.7-1.1-4.1-1.4
		c-1.3-0.4-2.6-1.2-3.9-1.4c-1.5-0.2-2.9-0.7-4.3-1c-1.5-0.3-3.2-0.5-4.7-1c-0.1,0-0.2,0-0.4-0.1c-1.5-0.1-3.1-0.1-4.5-0.4
		c-2.4-0.6-4.7-0.3-7.1-0.3c-2.4-0.1-4.8,0-7.3,0c-0.9,0-1.7,0.2-2.6,0.4c-0.9,0.1-1.7-0.1-2.6,0.3c-0.9,0.4-2.1,0.3-3.1,0.4
		c-2.1,0.3-4.1,0.9-6.2,1.3c-1.7,0.4-3.4,0.9-5.1,1.5c-1.5,0.6-3,1.3-4.6,1.6c-1.1,1.1-2.7,1.1-3.9,1.9c-1.4,0.8-3,1.5-4.6,2.2
		c-2.2,1-4.1,2.4-6.1,3.7c-1.1,0.7-1.9,1.8-3.2,2.1c-0.6,1-1.7,1.5-2.6,2.2c-1.6,1.4-3.2,2.8-4.7,4.3c-1.1,1-2.1,2.1-3.2,3.2
		c-2.3,2.3-4.4,4.7-6.3,7.4c-0.6,0.9-1.5,1.7-2.2,2.6c-0.9,1.2-1.6,2.4-2.4,3.7c-1.2,2.1-2.3,4.2-3.3,6.3c-1,1.9-1.9,3.9-2.8,5.9
		c-0.8,2-1.6,4-2,6c-0.3,1.4-1.1,2.6-0.9,4.2c0,0.4-0.3,0.8-0.5,1.2c-1.3,0-2.6,0.2-3.9,0c-2.6-0.5-5.2,0-7.7-0.4
		c-2.5-0.4-4.9-0.2-7.3-0.3c-0.8-0.1-1.6-0.3-2.4-0.4c-0.8-0.1-1.6-0.1-2.3,0c-2.6,0.4-5.2,0.4-7.7,1.4c-0.4,0.2-1,0.1-1.4,0.2
		c0.1-0.5,0.2-0.8,0.3-1.1c0.1-0.9,0.2-1.9,0.4-2.8c0.2-0.8,0.5-1.6,0.6-2.5c0.2-1.3,0.6-2.5,0.8-3.8c0.5-2.5,1.4-4.8,2.1-7.2
		c0.9-3.2,2.4-6.2,3.6-9.3c0.5-1.4,1.1-2.7,1.8-4c0.7-1.2,1.4-2.4,1.9-3.7c0.5-1.3,1.2-2.5,2-3.7c0.8-1.1,1.5-2.4,2.2-3.6
		c0.4-0.6,0.8-1.2,1.1-1.9c0.9-1.9,2.4-3.4,3.4-5.2c0.4-0.8,1-1.4,1.6-2.1c1.6-2,3.3-3.9,4.9-6c0.2-0.3,0.5-0.6,0.8-0.8
		c2.1-2.1,4.1-4.2,6.2-6.2c1.7-1.6,3.4-3.2,5.1-4.7c1.1-0.9,2.3-1.7,3.6-2.7c0-0.9,1.2-1,1.9-1.6c1.1-1,2.4-1.6,3.7-2.5
		c1.2-0.8,2.6-1.5,3.7-2.6c0.3-0.3,0.8-0.4,1.1-0.6c0.5-0.3,1.1-0.6,1.5-1c0.4-0.3,0.8-0.5,1.3-0.6c0.8-0.2,1.5-0.8,2.2-1.3
		c0.7-0.5,1.3-1,2.1-1c0.1,0,0.2-0.2,0.3-0.2c1.3-0.3,2.1-1.4,3.4-1.8c1.2-0.3,2.3-1,3.5-1.5c1-0.4,1.9-1.1,3-1.3
		c1.1-0.2,2-0.8,3.1-1.1c1.3-0.5,2.5-0.9,3.8-1.3c2.2-0.6,4.3-1.4,6.5-1.9c1.3-0.3,2.6-0.6,3.9-1.1c0.7-0.2,1.4-0.1,2.2-0.4
		c0.9-0.4,2.1-0.3,3.1-0.5c0.7-0.1,1.3-0.3,2-0.4c0.6-0.1,1.3,0.3,1.8-0.4c0,0,0.1,0,0.2,0c0.7,0,1.3,0,2,0c0.5-0.1,1.1-0.4,1.6-0.4
		c2.3,0.2,4.6-0.5,6.9-0.4c2.3,0.1,4.6,0,6.9,0c2.9,0.1,5.8,0.1,8.7,0.4c2,0.2,4.1,0.4,6.1,0.8c0.8,0.2,1.7,0.1,2.4,0.4
		c0.7,0.3,1.5,0.2,2.2,0.4c1.8,0.5,3.7,0.7,5.6,1.3c3.3,0.9,6.5,1.9,9.7,3c1.4,0.5,2.8,1,4.3,1.6c1.3,0.5,2.7,0.8,3.9,1.6
		c0.8-0.2,1,0.6,1.6,0.8c1.4,0.5,2.8,1.2,4.1,1.9c1,0.5,1.9,1.1,2.9,1.6c2.2,1,4.3,2.4,6.3,3.7c1.9,1.2,3.8,2.4,5.7,3.7
		c1.4,1,2.8,2.1,4.2,3.1c2.3,1.6,4.2,3.7,6.4,5.3c0.4,0.3,0.8,0.7,1.1,1.1c2.8,2.9,5.7,5.7,8.3,8.7c2.3,2.6,4.3,5.5,6.4,8.3
		c0.8,1.1,1.5,2.4,2.3,3.6c2.9,4.3,5.2,8.8,7.4,13.4c0.6,1.2,1.3,2.4,1.7,3.8c0.3,1.3,0.9,2.7,1.5,3.9c1.2,2.4,1.9,5,2.7,7.5
		c0.6,1.8,1,3.6,1.6,5.4c0.6,1.9,0.7,4,1.5,5.9c0.3,0.8,0.1,1.7,0.4,2.6c0.4,1.2,0.3,2.5,0.5,3.7c0.1,0.8,0.3,1.6,0.4,2.4
		c0.1,0.8-0.3,1.7,0.4,2.4c0.1,0.1,0,0.3,0,0.4c0,1.3-0.1,2.6,0,3.9c0.1,1.3,0.3,2.5,0.5,4c0.2,0.2,0.7,0.5,1.1,0.8
		c2.1,1.5,3.8,3.3,5.5,5.3c2,2.4,2.9,5.3,4.1,8.1c0.3,0.8,0.4,1.7,0.5,2.5c0.1,1.1-0.1,2.2,0.3,3.4c0.2,0.7,0.2,1.6-0.2,2.4
		c-0.3,0.7-0.1,1.7-0.1,2.5c0,0.4,0,0.8-0.1,1.1c-0.3,0.9-0.6,1.8-1,2.8c0,0,0.1,0.2,0.2,0.2c-0.8,1.6-1.5,3.1-2.3,4.6
		c-0.6,1.2-1.2,2.3-2.3,3.2c-1.4,1.2-2.4,2.6-4,3.6c-2.3,1.4-4.6,2.6-7.2,3.5c-0.9,0.3-1.9,0.5-2.9,0.6c-4.3,0.7-8.7,0.3-13,0.3
		c-4.3,0.1-8.6,0-12.9,0c-4.4,0-8.8,0-13.1,0c-44.1,0-88.2,0-132.4,0c-0.6,0-1.3,0-2,0c1,2.4,2.9,4,4.1,6.2c0.1,0.1,0.5,0.2,0.7,0.4
		c3,4.4,7.1,7.9,10.9,11.5c2.6,2.5,5.5,4.7,8.6,6.6c0.9,0.5,1.5,1.5,2.6,1.7c0.6,1.1,2,0.9,2.9,1.6c0.8,0.7,1.8,1.1,2.7,1.5
		c1.5,0.7,2.9,1.6,4.4,2c1.4,0.4,2.5,1.1,3.9,1.6c1,0.3,2.1,0.5,3.1,1c1.1,0.5,2.3,0.8,3.5,1c1.1,0.2,2.3,0.4,3.4,0.9
		c0.6,0.3,1.4,0.2,2.2,0.4c1.1,0.3,2.4,0.3,3.5,0.4c0.7,0.1,1.4,0.5,2.2,0.4c0.7-0.1,1.3,0.1,2,0.3c1.2,0.3,2.5,0,3.7,0.1
		c1.5,0.1,2.9,0.3,4.3,0.4c1.3,0,2.5-0.3,3.8-0.3c1.2-0.1,2.5,0.2,3.7-0.1c1.8-0.3,3.8-0.3,5.6-0.8c2.1-0.5,4.3-0.6,6.2-1.5
		c3.1-0.2,5.9-1.5,8.8-2.4c0.9-0.3,2-0.5,2.8-1.3c0.5-0.5,1.2,0,1.8-0.5c0.9-0.7,2.1-1.2,3.2-1.7c0.9-0.4,1.6-1.2,2.7-1.1
		c1.3-1.1,2.9-1.5,4.2-2.6c0.9-0.8,2-1.4,3-2.1c1.3-0.9,2.6-1.9,3.9-2.9c2-1.6,4-3.3,6-4.9c0.1-0.1,0.2-0.1,0.3-0.2
		c0.6-1.6,1.9-1.8,3.4-1.7c3.3,0.1,6.7,0.6,10,0.4c2.2,0.8,4.5,0.3,6.7,0.4c1.4,0.1,2.7,0.6,4.2,0.4c1.4-0.1,2.8-0.3,4.1,0
		c2.1,0.6,4.2,0.2,6.3,0.3c0.9,0,1.7,0.3,2.6,0.4c0.9,0.1,1.8,0,2.9,0c-1.1,1.8-2,3.4-3,4.9c-0.5,0.7-1.1,1.4-1.6,2.1
		c-0.4,0.6-0.9,1.1-1.3,1.8c-0.7,1.3-1.7,2.4-2.7,3.6c-3.4,4.2-7.1,8.2-11.1,11.9c-2,1.9-4.1,3.8-6.4,5.3c-0.8,0.6-1.6,1.2-2.3,1.9
		c-0.6,0.6-1.4,0.8-2,1.2c-0.6,0.4-1.1,1-1.7,1.5c-2,1.4-4.2,2.5-6.2,3.9c-1.4,1-3,1.5-4.3,2.5c-1.3,1-2.8,1.6-4.3,2.4
		c-1.6,0.8-3.5,1.1-5,2.1c-1.4,0.9-3,1.3-4.5,1.9c-2.5,0.9-5.1,1.7-7.6,2.5c-1,0.3-2.1,0.5-3,0.8c-0.9,0.3-1.8,0.6-2.8,0.7
		c-1.1,0.2-2.3,0.5-3.4,0.8c-1.1,0.4-2.2,0.1-3.3,0.7c-0.7,0.3-1.6,0.4-2.4,0.4c-0.7,0.1-1.5,0.2-2.2,0.3c-1.9,0.3-4,0.1-5.9,0.5
		c-2.6,0.5-5.3,0.3-7.9,0.3c-2.6,0.1-5.2-0.1-7.8,0c-1,0-1.8-0.4-2.8-0.4c-1,0-2,0.1-2.9-0.1c-0.6-0.1-1.2-0.3-1.8-0.4
		c-0.6,0-1.2,0.2-1.9-0.2c-0.5-0.3-1.3,0-1.9-0.2c-1.7-0.5-3.5-0.6-5.2-1c-1.4-0.3-2.8-0.6-4.1-0.9c-2.4-0.6-4.7-1.1-7-2.1
		c-1-0.4-2.1-0.6-3.1-1c-0.8-0.3-1.6-0.5-2.4-0.9c-0.6-0.3-1.2-0.5-1.8-0.4c-0.6-1-1.7-1-2.6-1.3c-3.4-1.5-6.7-3.2-9.9-4.9
		C71.1,211.8,70.8,211.8,70.5,211.8z M211.1,139c0,0.8,0.1,1.8,0,2.8c-0.2,1.9,0.9,3.3,2,4.7c0.6,0.7,1.5,1.3,2.4,1.7
		c1,0.5,2.2,0.9,3.3,0.9c2.6,0,5.1,0.4,7.7-0.3c2.6-0.7,4.7-1.9,5.9-4.6c0.6-1.2,0.5-2.5,1-3.7c0.2-0.5-0.1-1.3-0.4-2
		c-0.3-0.9-0.6-1.8-1.1-2.5c-1.3-1.5-2.7-3-4.7-3.8c-0.4-0.2-0.6-0.5-1-0.8c2.7-1.5,4.7-3.4,5.7-6.4c0-0.2-0.1-0.7,0-1.1
		c0.3-0.6,0.7-1.1,0-1.7c-0.1-0.1,0-0.5,0-0.8c0-1.1-0.5-1.9-1.1-2.7c-1.7-2.3-4.2-3-6.8-3.4c-1.7-0.2-3.4-0.2-5.1,0.3
		c-2.9,0.9-5.4,2.2-6.3,5.4c-0.3,0.9-0.1,1.9-0.6,2.7c-0.1,0.1,0,0.3,0,0.4c0.7,0.6,0.2,1.3,0.4,2c1.1,2.7,3.4,4.4,5.8,6
		c-1.6,0.4-2.8,1.5-4.1,2.5C212.7,135.6,211.8,137.1,211.1,139z M207.6,132.2c0-1.5-0.3-2.9-0.4-4.4c-0.2-2.1-0.6-4.2-1.3-6.2
		c-0.5-1.6-1.4-3.1-2.7-4.1c-1.8-1.4-3.9-2.1-6.1-2.2c-1.2-0.1-2.4,0.1-3.6,0.3c-3.6,0.7-6.4,3.6-7.6,6.9c-1.1,3.1-1.2,6.3-1.6,9.5
		c-0.2,1.6,0.5,3.1,0.4,4.7c-0.1,1.6,0.4,3.2,0.8,4.8c0.4,1.4,1,2.8,1.8,3.9c1.8,2.3,4.2,3.7,7.3,3.5c1.3-0.1,2.7,0.2,3.9-0.1
		c1.3-0.3,2.6-1,3.8-1.8c1.2-0.8,2-2,2.8-3.3c1.1-1.9,1.5-4,1.9-6.1C207.5,136,207.5,134.1,207.6,132.2z M64.1,132.7
		c-0.2-2,0.1-3.6-0.4-5.1c-0.3-1-0.1-2.1-0.4-3.2c-0.4-1.5-0.9-2.9-1.5-4.3c-0.9-1.9-2.4-3.3-4.2-4c-2.3-0.8-4.8-1.5-7.3-0.5
		c-4.2,0.5-6.7,4-7.7,6.9c-1.1,3.1-1.2,6.3-1.5,9.5c-0.1,1.3,0.2,2.6,0.3,3.9c0.1,1.1,0.1,2.1,0.3,3.2c0.4,2,1.1,3.8,2,5.7
		c0.6,1.2,2.8,2.9,3.9,3.4c1.5,0.6,3,0.8,4.6,0.8c1,0,2.2,0.2,3.1-0.1c1.3-0.4,2.6-1,3.7-1.8c1.2-0.8,2.1-2,2.8-3.3
		c1.1-1.9,1.5-4,1.9-6.1C63.9,136,63.9,134.1,64.1,132.7z M158.5,132.8c0.1,1.7-0.1,3.6,0.3,5.6c0.4,1.7,1.1,5,2,6.4
		c1.7,2.7,4.2,4.1,7.4,4.2c0.5,0,0.9,0,1.4,0c1.7,0.2,3.4-0.3,5-0.8c0.5-0.2,0.9-0.4,1.3-0.7c0.8-0.7,1.6-1.5,2.3-2.4
		c0.6-0.7,1.2-1.5,1.4-2.3c0.4-1.3,1-2.7,1.2-4c0.1-1.5,0.6-3,0.5-4.5c-0.1-1.5,0-3,0-4.5c-0.1-1,0.2-2-0.3-3
		c-0.4-0.8-0.2-1.9-0.4-3c-0.5-2.6-1.7-4.8-3.7-6.5c-0.9-0.7-2-1.3-3-1.6c-2.1-0.5-4.2-0.6-6.3-0.1c-3,0.7-5.1,2.3-6.6,4.9
		c-1.5,2.6-2,5.5-2.3,8.5C158.4,130.2,158.5,131.4,158.5,132.8z M89.9,132c0-1.4,0.1-2.7,0-4.1c-0.1-1.2-0.2-2.4-0.4-3.6
		c0-0.3-0.3-0.7-0.4-1c-0.8-2.8-2.2-5.2-4.9-6.8c-0.3-0.2-0.6-0.3-1-0.5c-1.6-0.7-3.3-0.8-5-0.8c-1.7,0-4,0.7-5.4,1.6
		c-2.2,1.4-3,2.9-4.2,5.6c-0.9,2-1.1,4.2-1.4,6.2c-0.4,2.5-0.3,5.1,0,7.6c0.2,1.8,0.5,3.6,1,5.4c0.7,2.7,2.3,4.6,4.4,6.1
		c2.6,1.8,5.6,1.2,8.5,1.1c0.6,0,1.2-0.3,1.7-0.5c2.2-1,3.9-2.7,5-4.7c1.3-2.4,1.9-5.2,2-8C89.9,134.5,89.9,133.2,89.9,132z
		 M32.2,134.5c0,0.5,0,0.9,0,1.4c-0.1,0.5-0.3,1.1-0.4,1.6c-0.3,1.4-0.8,2.9-1.6,4c-0.7,1-1.5,1.9-2.4,2.7c-1.2,1.1-3,0.7-4.4,1.3
		c-0.2,0.1-0.4,0.1-0.6,0c-0.5-0.1-0.8-0.5-1.4-0.4c-0.8,0.1-1.6,0-2.4-0.4c-0.9-0.5-1.9-0.4-2.9-0.4c0,1,0,2,0,2.9
		c1,1.4,2.7,1.6,4.1,1.7c2.2,0.2,4.5,0.4,6.7-0.3c1.6-0.4,3-1.1,4.2-2c1.7-1.4,3.1-3.1,4-5.4c0.9-2.5,1.5-5.1,1.7-7.7
		c0.1-1.9,0.1-3.8,0-5.7c0-1.2-0.2-2.4-0.4-3.6c0-0.3-0.3-0.7-0.4-1c-0.8-2.3-1.6-4.5-3.7-6.1c-1.5-1.2-3.2-1.5-4.9-1.8
		c-1.9-0.4-3.9,0-5.7,0.8c-1.7,0.6-3.4,1.5-4.4,3c-1.3,1.9-2.2,4-2,6.4c0.1,0.8,0,1.7,0,2.5c0,0.8,0.1,1.6,0.4,2.4
		c0.7,2.1,2.1,3.8,4.1,4.7c1.4,0.7,2.9,1.2,4.5,1c0.8-0.1,1.7,0,2.5,0c0.4,0,0.7-0.2,1.1-0.2C29.4,135.7,30.7,134.9,32.2,134.5z
		 M134.3,148.6c6.5,0,13,0,19.6,0c0.1-1,0.3-2,0.3-2.5c-0.5-0.7-0.8-1.1-1-1.3c-4.7,0-9.2,0-13.7,0c-0.1,0-0.1,0-0.2-0.1
		c0,0-0.1-0.1-0.1-0.1c2.7-2.8,5.3-5.7,8-8.5c0.7-0.8,1.5-1.6,2.1-2.5c2.1-3.3,3.7-6.7,3.2-10.8c0-0.2-0.7-2.4-0.8-2.6
		c-0.4-1.1-1.1-2-2-2.7c-1.8-1.4-3.9-2-6.1-2.2c-1.3-0.1-2.7,0-3.9,0.4c-2,0.7-4.3,1-5.4,2.7c-0.3,0.7-0.4,1.2-0.6,1.6
		c0.3,0.8,0.5,1.6,0.8,2.3c1-0.5,1.9-0.8,2.6-1.3c1.4-1,2.9-1.6,4.7-1.5c0.8,0.1,1.6,0,2.2,0c2.6,1.3,3.7,3.4,3.4,6.1
		c-0.1,0.8-0.3,1.6-0.3,2.3c-0.1,0.1-0.3,0.2-0.3,0.3c-1.5,3.5-3.7,6.4-6.4,9.1c-2.1,2.2-4.2,4.4-6.2,6.6c-0.5,0.6-0.9,1.2-0.8,2
		c0,0.5,0,1,0,1.5C133.8,148,134.1,148.4,134.3,148.6z M104.5,115.7c-2.9,1.9-5.6,3.6-8.4,5.4c-0.1,0.8-0.2,1.7-0.3,2.4
		c0.4,0.5,0.7,0.8,1,1.1c2.4-1.2,4.5-2.7,6.8-4c0,8.1,0,16,0,24c-1.7,0-3.2,0-4.8,0c-0.9,0-1.8-0.1-2.4,0.5
		c-0.2,0.7-0.4,1.2-0.6,1.9c0.3,0.5,0.6,1,0.9,1.5c6,0,11.9,0,17.8,0c1-0.9,0.3-2,0.5-2.8c-0.4-0.4-0.7-0.8-1-1.2
		c-1.9,0-3.7,0-5.7,0c0-9.5,0-19,0-28.5C107.1,115.3,105.6,116,104.5,115.7z M191.2,56.1c1,0.1,1.7-0.4,2.3-1c3-3,6-6,9-9
		c0.1-0.7-0.1-1.2-1-1.4c-0.6,0.2-1.3,0.5-1.9,1.2c-1.9,2-3.9,3.9-5.8,5.8c-0.2,0.2-0.3,0.6-0.8,0.4c0.1-0.4,0.3-0.8,0.4-1.2
		c0.9-3.1,1.8-6.2,2.8-9.2c0.2-0.7,0.4-1.4,0.3-1.9c-0.6-0.7-1-1.2-1.3-1.6c-0.5,0-0.9,0-1.3,0c0.1,0.1,0.2,0.2,0.2,0.3
		c-3.4,3.4-6.7,6.7-9.9,9.9c0.3,0.3,0.6,0.7,1.1,1.3c2.8-2.6,5.5-5.3,8.5-8.1c-0.2,0.7-0.3,1.3-0.5,1.7c-1.1,3.1-1.9,6.4-3,9.5
		c-0.3,0.7,0,1.6,0,2.2C190.8,55.5,191,55.8,191.2,56.1z M179,43.2c0.6,0,1.2,0.1,1.7-0.1c1.3-0.6,2.6-1.2,3.5-2.3
		c1-1.3,2.2-2.6,2.6-4.2c0.3-1,0.9-1.9,0.6-3c-0.9-2.9-2.6-5-5.8-5.6c-1.2-0.9-2.4-0.3-3.5,0.2c-2.5,1-4.1,3-5.3,5.4
		c-0.5,0.9-1,2.1-0.9,3.1c0.1,1.3,0.2,2.7,1.5,3.7c0.5,0.4,0.8,0.9,1.3,1.2C176,42.3,177.3,43.3,179,43.2z M158.2,209.2
		c0.8-0.3,1.6-0.5,2.3-0.9c1.6-0.8,3.4-1.3,4.5-2.7c0.5-0.7,0.9-1.4,1.4-2.2c0-0.5-0.2-1.3,0-1.5c0.6-0.6-0.1-0.9-0.1-1.3
		c0.2-1.5-0.5-2.8-1.2-4c-0.8-1.5-1.8-2.9-3.5-3.3c-0.9-0.3-2-0.9-2.9-0.6c-1.1,0.5-2.3,0.4-3.3,1.1c-1,0.6-2.2,0.9-3.3,1.3
		c0,0.5-0.1,1,0.1,1.3c0.9,1.5,1.4,3.2,2,4.8c0.6,1.6,1.2,3.2,1.9,4.7C156.7,207,156.8,208.4,158.2,209.2z M188.8,192.3
		c1.3-1.3,2.5-2.6,3.8-3.8c1.8-1.7,2-3.9,1.4-6.1c-0.7-2.5-2.2-4.4-4.6-5.5c-0.4-0.2-0.8-0.5-1.4-0.8c-0.4,0-0.9,0-1.4,0
		c-1.5,0-2.8,0.5-4.2,1.3c-1.5,1-2.6,2.5-4,3.6c0.1,0.3,0.1,0.7,0.3,0.9c1.6,1.8,3.2,3.5,4.8,5.2c0.4,0.4,0.9,0.7,1.1,1.1
		c0.8,1.5,2.2,2.4,3.2,3.5C188.1,192.1,188.5,192.2,188.8,192.3z M79.5,38.6c-1.2-2-2.3-3.9-3.4-5.8c0.4-0.3,0.8-0.5,1.2-0.7
		c0.9-0.6,1.8-0.5,2.6,0c1.4,1,2.7,2,4.3,3.2c0.7,0.1,1.5-0.3,2.3-1.1c-2.1-1.7-4.2-3.6-6.7-4.6c0.5-1,0.9-2,0.7-3.3
		c-0.4-0.7-0.8-1.5-1.4-2.1c-0.7-0.6-1.6-0.8-2.3-1.1c-1.4,0.4-2.6,0.6-3.7,1.3c-1.1,0.7-2.2,1.3-3.3,2c0.2,0.5,0.4,0.8,0.6,1.1
		c2.3,4.1,4.7,8.1,7.3,12.1C78.3,39.4,78.8,39,79.5,38.6z M133.1,213.7c-0.8-2-1.6-3.9-2.2-5.8c-0.8-2.4-2-4.8-2.8-7.2
		c-0.3-0.8-0.5-1.4-1.1-1.8c-0.6,0-1.1,0-1.6,0c-0.3,0.4-0.7,0.8-0.8,1.2c-0.7,2-1.3,4-2,6c-0.8,2.5-1.6,5-2.6,7.3
		c-0.1,0.2-0.1,0.3-0.1,0.5c0.2,0.2,0.3,0.3,0.5,0.5c0.6,0,1.2,0,1.8,0c0.4-1.3,0.8-2.6,1.2-3.8c2.2,0,4.2,0,6.2,0
		c0.8,1.3,0.5,3,1.9,3.8C132.1,214.7,132.7,214.6,133.1,213.7z M66.6,176.6c-2.2,1.2-4.3,2.2-6.3,3.4c-2.3,1.4-4.7,2.4-7.1,3.7
		c-0.2,0.1-0.3,0.3-0.4,0.4c-0.1,0.1-0.1,0.2-0.2,0.5c0.4,0.3,0.8,0.5,1.5,1.1c0.8,0.1,1.7-0.7,2.7-1.3c0.3-0.2,0.7-0.3,1-0.4
		c1.5,1.3,2.9,2.6,4.4,3.9c-0.5,1.5-1.5,2.8-1.4,4c0.4,0.6,0.7,0.9,1,1.2c0.4,0,0.6,0,0.9,0c0.8-2.1,1.7-4.2,2.5-6.2
		c0.7-1.8,1.6-3.5,2.3-5.3c0.4-1.1,1.3-2.2,0.8-3.7C67.8,177.4,67.2,177,66.6,176.6z M172.9,202.9c0.6-0.4,1.2-0.7,1.8-1.1
		c-0.2-1.4-1-2.7-0.8-4.2c1.6-1,3.3-2.1,4.7-3c1.6,0.3,2.1,2.2,3.8,2.3c0.3-0.2,0.8-0.4,1.2-0.6c0-0.3,0-0.5,0-1
		c-4-3.1-8.1-6.3-12.1-9.5c-1.5,0.5-1.5,0.5-2.4,1.6c0.1,0.3,0.4,0.5,0.4,0.8c0,0.7,0.1,1.5,0.4,2.2c0.3,0.7,0.2,1.6,0.5,2.4
		c0.3,0.7,0.2,1.5,0.4,2.2c0.4,1.1,0.4,2.3,0.7,3.4c0.4,1.2,0.6,2.4,0.8,3.6C172.3,202.3,172.7,202.6,172.9,202.9z M149.3,29
		c0.6-0.3,0.9-0.9,0.6-1.4c-0.7-1.2-0.2-2.6-0.7-3.8c-0.5-1.4-0.3-3-0.5-4.5c0-0.2,0.1-0.5,0-0.6c-0.7-0.8-0.1-1.8-0.4-2.6
		c-0.4-0.9-0.3-1.7-0.4-2.6c-0.3-0.4-0.7-0.7-1-1c-0.7,0-1.3,0-2,0c-1.4,2.2-2.7,4.5-4.1,6.7c-1.4,2.2-2.9,4.4-4.1,6.8
		c0.7,0.3,1.3,0.5,1.8,0.7c1.5-0.9,1.5-2.7,2.6-3.6c1.3,0.3,2.5,0.7,3.7,0.8c0.9,0.1,1.7,0.3,2.3,1c0.1,1.2-0.3,2.6,0.5,3.6
		C148.2,28.7,148.7,28.9,149.3,29z M83.8,206.1c1.1-1.2,2-2.3,2.9-3.3c2,0.7,3.8,1.4,5.7,2.1c0,1.4,0,2.7,0,4.1
		c0.6,0.3,1.1,0.6,1.6,0.9c0.3-0.3,0.5-0.5,0.7-0.7c0-3.9,0-7.8,0-11.6c0-0.5-0.1-1,0.1-1.3c0.8-1.1,0.2-2-0.3-3
		c-0.8-0.1-1.6-0.3-2.1-0.4c-3.5,4.1-6.9,7.9-10.4,11.9C82.5,205.3,83,205.6,83.8,206.1z M64.2,30.2c-0.4,0.4-0.9,0.8-1.3,1.2
		c-1.4,1.1-2.7,2.2-4.1,3.4c-0.3,0.2-0.3,0.7-0.4,1c1.6,1.9,3.1,3.7,4.5,5.4c1.5,1.8,2.9,3.7,4.3,5.5c0.4,0,0.8,0,1.2,0
		c1.8-1.8,4.1-3.1,5.9-5.1c-0.5-0.5-0.9-0.9-1.3-1.2c-1.8,1.1-3.1,2.8-5,3.7c-0.5-0.7-1-1.4-1.5-2c-0.5-0.6-1-1.2-1.5-1.9
		c1.4-1.1,2.7-2.1,4-3.2c-0.2-0.5-0.4-0.9-0.7-1.4c-0.3,0.1-0.7,0.1-1,0.3c-1.3,0.9-2.5,1.9-3.7,2.8c-0.9-1.1-1.8-2.3-2.6-3.5
		c1.5-1.3,3-2.5,4.4-3.7C65.6,30.7,65.4,30.2,64.2,30.2z M56.7,52.2c-2.8-1.7-5.3-3.5-5.3-6.7c0.9-2.9,3.1-3.6,5.3-4.3
		c-0.6-0.6-1.1-1-1.7-1.6c-0.2,0-0.7,0-1.1,0.1c-2,0.9-3.8,2.4-4.7,5c-0.3,1,0.1,1.9,0.2,2.9c0.2,1.1,0.7,2,1.3,2.8
		c0.8,1,1.8,1.9,2.8,2.8c1.4,1.2,3.2,2,5,1.6c2.6-0.6,4.7-2.1,5.5-4.8c0.2-0.6,0.3-1.3,0.5-1.9c-0.4-0.4-0.7-0.8-1-1
		c-0.4,0-0.7,0-1,0C62,50.4,61.1,52.7,56.7,52.2z M166.9,20.3c-1.3-1.2-2.2-2.4-3.9-2.8c-1.1-0.3-2.2-0.2-3.2-0.2
		c-0.5,0-1.1,0.3-1.5,0.5c-1.3,0.7-2.4,1.7-3,3c-1,1.9-1.9,3.9-1.7,6.1c0.2,2.5,1.9,4.4,4,5.2c0.5,0.2,1.1,0.5,1.6,0.3
		c0.6-0.2,1,0.6,1.7,0.1c0.4-0.3,1.1,0,1.7,0c0.3-0.7,0.5-1.3,0.7-1.9c-0.2-0.2-0.3-0.3-0.4-0.4c-0.3,0.1-0.5,0.3-0.8,0.3
		c-1.4,0-2.8,0.2-4.2-0.6c-0.6-0.6-1.5-1.2-1.5-2.2c-0.1-1.4-0.2-3,0.4-4.3c1-2.4,3.1-4.9,5.7-4.2c0.7,0.4,1.4,0.8,2,1.3
		c0.6,0.6,1.1,1.3,1.8,2.2C166.5,21.7,166.7,21,166.9,20.3z M127.7,10.9c-0.2,0.2-0.4,0.5-0.6,0.7c-1.7,1.5-2.7,3.4-2.7,5.8
		c0,0.2-0.2,0.5-0.2,0.7c0,0.3-0.1,0.7,0,1.1c0,0.4,0.2,0.7,0.2,1.1c0.1,2.4,1.3,4.1,3.3,5.3c0.3,0.1,0.6,0.2,1,0.4
		c1.7-0.1,3.5,0.3,5.1-0.4c0.7-0.6,1.2-1,1.5-1.3c0-0.6,0-1,0-1.6c-1.9,0.7-3.6,1.9-6.1,1.1c-1.2-0.3-1.7-1.8-2.5-3.2
		c0-0.8-0.1-1.7,0-2.6c0.1-0.9,0.1-1.9,0.4-2.8c0.5-1.2,1.4-2,2.6-2.5c3.2,0,3.2,0,5.3,1.6c0.2-0.4,0.4-0.8,0.6-1.2
		c-0.3-1-1-1.6-2-2C131.8,10,129.8,10.1,127.7,10.9z M117.8,200.1c-2.1-1.5-4.2-2.7-6.9-1.7c-1.2,0.5-2.4,0.9-3.1,2
		c-0.8,1.3-1.6,2.7-1.8,4.3c-0.1,1.3-0.1,2.6,0,3.9c0.1,1.5,0.8,3,2.1,3.8c1.2,0.8,2.6,1.4,4.1,1.3c1.4,0,2.7-0.3,3.8-0.9
		c0.2-0.6,0.4-1.1,0.5-1.6c-0.2-0.2-0.4-0.4-0.5-0.5c-0.9,0.4-1.8,0.8-2.7,1.1c-1,0.3-2-0.3-3-0.5c-0.5-0.5-1.1-1.1-1.6-1.6
		c-0.6-1.9-0.7-3.8,0-5.7c0.8-2.4,1.6-3.3,3.9-3.7c0.3,0,0.6,0.1,0.9,0.2c0.4,0,0.9,0,1.2,0c0.9,0.7,1.7,1.3,2.5,1.9
		C118,201.8,117.7,201.1,117.8,200.1z M105.1,12.1c-0.1,0.6-0.4,1.2-0.3,1.3c0.6,0.6,0.3,1.2,0.3,1.8c0,0.3-0.1,0.8,0,0.9
		c0.6,0.5,0.3,1.2,0.4,1.8c0.1,0.7,0.3,1.3,0.4,2c0.1,0.6,0.4,1.2,0.4,1.8c0,1.9,0.5,3.7,0.9,5.5c0.9,0.4,1.6-0.1,2.2-0.4
		c-0.3-2-0.6-4-0.9-6.2c1.5-0.3,3.2-0.6,4.9-0.9c0.4-0.6,0.4-0.6,0.3-1.9c-1.9,0.3-3.8,0.5-5.7,0.8c-0.2-1.1,0.1-2.1-0.4-3.2
		c-0.2-0.5-0.3-1.3,0.4-1.7c1.5-0.2,3-0.4,4.5-0.6c0.6-0.5,0.6-1.1,0.3-1.9c-0.9,0-1.8-0.2-2.5,0.1c-0.9,0.3-1.8,0.2-2.6,0.4
		C107,12,106.2,12.2,105.1,12.1z M93.4,17.5c0-0.6,0-1.1,0-1.8c-0.9,0.2-1.7,0.2-2.4,0.5c-2.1,0.8-4.2,1.8-6.4,2.5
		c-0.7,0.2-1.3,0.7-1.9,1.1c-0.1,0.1-0.1,0.2-0.2,0.4c0.2,0.4,0.4,0.8,0.7,1.3c1.5-0.6,2.9-1.1,4.3-1.6c0.8,2,1.5,4.2,2.4,6.2
		c0.9,2.1,1.3,4.4,2.6,6.2c0.7-0.3,1.3-0.6,1.9-0.9c-1.6-4.2-3.1-8.3-4.7-12.4C90.8,18.5,92,18,93.4,17.5z M80,201.7
		c-1.6-0.9-3.2-1.8-4.8-2.7c2.2-3.9,4.3-7.6,6.4-11.5c-0.6-0.4-1.2-0.8-1.9-1.4c-2.4,4.2-4.7,8.4-7,12.5c0,0.3,0,0.8,0,1.3
		c2.2,1.2,4.3,2.4,6.4,3.5C79.5,203,80.3,202.8,80,201.7z M138.2,213.7c2.6-0.4,5-0.8,7.4-1.2c0-0.6,0-1.2,0-1.9
		c-2,0-3.8,0.5-5.8,0.7c-0.7-4.3-1.4-8.5-2.1-12.8c-0.6,0-1.2,0-1.8,0c-0.2,0.2-0.4,0.4-0.6,0.6c0.4,0.9,0.3,2,0.5,2.9
		c0.2,0.8,0.1,1.6,0.3,2.4c0.5,1.5,0.4,3.1,0.8,4.6c0.2,1,0.4,1.9,0.4,3C137.4,212.6,137.9,213.2,138.2,213.7z M120.8,25.4
		c-0.1-0.4-0.2-0.7-0.3-1.1c-0.1-1.8,0.2-3.5-0.3-5.3c-0.3-1,0-2.2-0.1-3.3c-0.1-1.1-0.3-2.2-0.4-3.4c-0.1-0.6,0-1.1,0-1.7
		c-0.9,0-1.6,0-2.4,0c0.1,1.6,0.2,3.2,0.3,4.7c0.4,3.2,0.3,6.5,0.5,9.8c0,0.1,0,0.1,0.1,0.2c0.1,0.1,0.3,0.3,0.5,0.5
		C119.3,25.7,120.1,26.3,120.8,25.4z M166.5,36.2c0.3-0.3,0.5-0.4,0.5-0.6c1.1-2.1,2.2-4.2,3.3-6.3c1.1-2.1,2.3-4.3,3.4-6.3
		c-0.3-0.3-0.6-0.7-0.8-1c-0.6,0-1,0-1.4,0c-2.1,4.4-4.6,8.6-6.8,13.1C165.3,35.5,165.9,35.9,166.5,36.2z M101,29.2
		c0.8-0.3,1.3-0.5,1.9-0.7c-0.1-2.2-1-4.1-1.5-6.2c-0.4-1.8-0.8-3.6-1.4-5.3c-0.4-1.1-0.2-2.5-1.5-3.4C98,14,97.5,14.3,97,14.6
		c0.4,1.2,0.7,2.3,1,3.4c0.5,1.8,0.9,3.5,1.4,5.3C99.8,25.3,100.4,27.1,101,29.2z M145.6,197c1.3,5,2.4,9.7,3.6,14.4
		c0.9,0.2,1.7,0,2.3-0.8c-0.1-0.2-0.4-0.3-0.4-0.6c-0.2-1.7-0.8-3.3-1.2-5c-0.5-2.4-1.4-4.7-1.6-7.2c-0.7-0.4-0.1-1.6-1.3-1.8
		C146.6,196.4,146.1,196.7,145.6,197z M125.9,133.8c0.4-0.6,0.8-1.2,1.2-1.7c0.2-1.6,0.2-3.2-1.4-4.1c-1.1,0-2.2,0-3.2,0
		c-0.4,0.6-0.8,1.1-1.2,1.7c-0.1,2.8-0.1,2.8,1.5,4.2C123.8,133.8,124.7,133.8,125.9,133.8z"/>
	<path fill="#FFFFFF" d="M1.3,118.3c-0.1-1,0-1.6,0.3-2.3c0.4-0.7,0.6-1.6,1-2.3c1.6-3.3,3.7-6.2,6.5-8.4c1.9-1.5,4.1-2.6,6.3-3.7
		c1.5,0.1,2.8-1.1,4.4-0.9c2-0.8,4.1-0.3,6.1-0.4c1.5,0,3,0.3,4.5,0.3c1.5,0.1,3.1-0.2,4.5,0.1c2.4,0.5,4.9,0,7.3,0.4
		c2.7,0.4,5.4,0,8.1,0.4c2.3,0.4,4.5,0.2,6.7,0.3c1.4,0.1,2.7,0.6,4.2,0.4c1.4-0.1,2.8-0.3,4.1,0c2.1,0.6,4.2,0.2,6.3,0.3
		c1.2,0.1,2.4,0.3,3.6,0.4c1.2,0.1,2.3,0,3.6,0c0-16.9,0-33.8,0-50.6c1.1-1,2.3-0.8,3.5-0.7c1.2,0,2.4-0.4,3.6,0.6
		c0,16.9,0,33.9,0,51.1c1.9,0,3.6,0.6,5.5,0.5c1.6-0.1,3.3-0.3,4.9,0.3c0.6,0.2,1.4,0,2.2-0.3c-0.9-0.5-1.9-1-2.9-1.6
		c-1.2-2.1-1.6-4.4,0-6.8c0.5,0.2,1.1,0.3,1.6,0.6c1.5,1.3,3.4,2,5.2,2.7c1.3,0.5,2.7,1.1,4.3,1.1c0.6,0,1.2-0.1,1.6,0.4
		c2.8,0.1,5.5-0.2,7.9-1.6c1.6-0.9,3-2.4,3.7-4.2c0.1-0.3,0.2-0.7,0.2-1.1c0.1-0.5,0-0.9,0.3-1.5c0.3-0.4,0-1.1,0-1.7
		c0-0.1-0.3-0.2-0.3-0.3c0.3-2.9-2.2-4-3.8-5.7c-0.8-0.8-1.9-1.7-3.1-1.9c-1.3-0.2-2.1-1.1-3.4-1.3c-1-0.2-1.8-0.9-2.7-1.5
		c-0.9-0.6-2.1-0.7-2.9-1.5c-0.8-0.7-2-1-2.8-1.7c-1.3-1.1-2.6-2.3-3.3-3.9c-0.6-1.3-1.4-2.4-1.7-3.8c-0.1-0.4-0.2-0.7-0.2-1.1
		c0-1.5,0-3,0-4.5c0-1.1,0.4-2.2,0.8-3.2c0.4-0.9,1-1.8,1.4-2.7c0.6-1.2,1.5-2.2,2.8-2.7c0.2-0.1,0.5-0.2,0.6-0.3
		c1.4-1.7,3.6-1.8,5.4-2.6c0.1,0,0.2-0.2,0.3-0.1c1.2,0.3,2.2-0.5,3.4-0.4c1.1,0.1,2.2,0,3.3,0c0.8,0,1.4,0.5,2.2,0.4
		c0.8-0.1,1.5,0.3,2.3,0.7c0.7,0.3,1.4,0.3,2.1,0.6c1.1,0.4,2.2,0.7,3.1,1.5c0.3,0.7,0.7,1.4,0.8,2.2c0.1,1.1,0.1,2.2,0,3.3
		c0,0.4-0.4,0.7-0.6,1.2c-0.5-0.2-1.1-0.4-1.7-0.7c-2-1-3.9-2.2-6.2-2.6c-0.1,0-0.1-0.1-0.1-0.1c-0.6-0.1-1.3,0-1.9-0.2
		c-0.7-0.2-1.3-0.5-2-0.4c-0.6,0.1-1.2,0-1.8,0.3c-0.7,0.3-1.6,0.2-2.4,0.5c-1.8,0.6-3.8,2.2-4.3,4c-0.3,1.3-1.2,2.7-0.2,4.1
		c0.2,0.4,0,1,0,1.4c1.2,2,3,3.4,4.5,4.9c0.6,0.6,1.8,0.5,2.4,1.2c1.5,0.1,2.4,1.3,3.7,1.9c1.2,0.5,2.5,0.9,3.6,1.6
		c2.3,1.4,4.8,2.5,6.5,4.6c0.8,1,1.6,1.9,2.2,3c0.4,0.7,0.2,1.7,0.9,2.4c0.3,7.2-0.1,8.3-1.4,11c-1.7,3.7-4.8,5.7-8.3,7.1
		c0,0.1,0,0.3,0.1,0.5c0.6,0,1.2,0,1.8,0c0,0.1,0,0.2,0,0.3c-0.3,0-0.6,0.1-0.9,0.1c-1.4,0-2.8-0.2-4.1,0.1
		c-2.7,0.6-5.4,0.5-8.1,0.3c-4.8-0.5-9.6-0.2-14.4-0.3c-4.8-0.1-9.7,0-14.5,0s-9.7,0-14.5,0c-4.8,0-9.5,0-14.3,0
		c-4.8,0-9.7,0-14.5,0s-9.7,0-14.5,0c-1.2,0-4.5,0.8-6.1,1.4c-0.7,0.3-1.3,0.6-2,0.8c-1.9,0.7-3.4,2-4.9,3.4
		C4.7,113.4,2.8,115.6,1.3,118.3z"/>
	<path fill="#FFFFFF" d="M133.8,79.5c0-1.4,0-2.4,0-3.4c-0.1-2.3,0.5-4.5,0.9-6.7c0.2-1.3,1.1-2.5,1.1-3.8c0-0.1,0.1-0.2,0.2-0.3
		c0.7-0.6,0.8-1.5,1.1-2.3c1.2-2.5,2.9-4.7,5-6.6c1.2-0.3,1.9-1.6,3.1-1.9c1.1-0.4,2.2-1,3.3-1.5c1.3-0.6,2.7-0.8,3.9-1.4
		c0.1,0,0.1-0.1,0.2-0.1c2.9-0.2,5.8-0.6,8.7-0.3c0.6,0.1,1.3,0.5,2,0.3c0.7-0.1,1.2,0.3,1.8,0.4c0.7,0.1,1.3,0.2,2,0.4
		c0.4,0.1,0.8,0.3,1.2,0.4c1.3,0.6,2.6,1.3,3.9,1.9c0.5,0.2,2.9,2.6,3.6,3.1c1.3,1.1,2,2.7,2.9,4.1c1.1,1.8,1.6,3.9,2.4,5.9
		c0.4,0.9,0.2,2,0.5,3c0.6,1.8,0.3,3.6,0.4,5.3c0,0.3,0.1,0.6,0.2,0.9c0.1,0.7,0.4,1.5,0.1,2c-0.5,0.9-0.3,1.8-0.3,2.6
		c0,3.2-0.7,6.3-1.7,9.3c-0.3,1-0.6,2-1.2,2.8c-0.6,0.8-1,1.7-1.4,2.6c-0.5,1-1.2,1.7-1.8,2.6c-1.2,2-3.2,3.1-5.1,4.2
		c-1.6,0.9-3.2,1.8-5,2.2c-0.9,0.2-1.8,0.4-2.7,0.6c-3.2,0.8-6.4,0.5-9.6,0.3c-2.3-0.1-4.6-0.5-6.7-1.8c-0.7-0.4-1.5-0.8-2.3-1.1
		c-1.8-0.8-3.5-1.9-4.6-3.5c-0.9-1.3-2-2.4-2.6-4c-0.7-1.6-1.4-3.1-1.9-4.7c-0.2-0.7-0.5-1.4-0.6-2.1c-0.2-1.2-0.1-2.4-0.4-3.5
		C133.6,83.4,134,81.3,133.8,79.5z M173,89.5c0-0.2,0-0.5,0-0.8c0-0.4,0.2-0.7,0.3-1c0.4-1.6,0.7-3.2,0.8-4.8c0.1-1.7,0.1-3.4,0-5.1
		c-0.1-1.7,0.1-3.4-0.3-5.1c-0.2-0.9-0.2-2-0.5-3c-0.2-0.9-0.3-1.8-0.6-2.7c-1.4-3.3-3.3-6.3-6.7-7.9c-1.6-1.5-3.7-1.7-5.7-1.8
		c-2.8-0.2-5.6-0.4-8.3,0.7c-1.5,0-2.4,1.4-3.7,1.8c-0.2,0.9-1.2,0.9-1.7,1.6c-0.4,0.7-1,1.3-1.5,1.9c-1.1,1.3-1.7,2.8-2.3,4.3
		c-1,2.6-1.1,5.4-1.5,8.2c-0.2,1.5,0,3.1,0,4.7c0,1.6,0.7,3.1,0.4,4.7c0.7,0.8,0.4,1.8,0.6,2.7c0.4,1.3,0.7,2.6,1.3,3.8
		c0.3,0.7,1.4,2.7,1.8,3.2c0.8,0.8,1.6,1.7,2.5,2.5c0.8,0.7,1.7,1.6,2.6,1.7c1.8,0.3,3.6,1.1,5.5,0.9c1.2-0.1,2.5,0,3.7,0
		c0.7,0,1.5,0,2.2-0.3c0.8-0.4,1.8-0.2,2.5-0.5c0.8-0.3,1.6-0.9,2.3-1.5c1.4-1.2,2.7-2.5,3.9-4C171.7,92.4,172.1,91,173,89.5z"/>
	<path fill="#FFFFFF" d="M235.6,156.5c0.8-0.6,1.6-1.1,2.6-1.4c1.8-0.6,3.1-1.8,4.4-2.9c2-1.7,3.8-3.6,5.2-5.9
		c0.4-0.6,0.8-1.2,1.2-1.9c0.1,0,0.2,0,0.4,0c-0.4,1.3-0.5,2.7-0.9,4c-0.9,2.5-2.1,4.9-3.6,7.1c-1.6,2.3-3.6,4-6,5.4
		c-1,0.6-2,1.2-3,1.7c-1.9,1-4,1.5-6.1,1.9c-1.8,0.4-3.6,0.5-5.3,0.3c-2.6-0.4-5.3,0-7.9-0.4c-2.4-0.4-4.8,0-7.1-0.4
		c-2.7-0.4-5.4,0-8.1-0.4c-2.5-0.4-5,0-7.5-0.4c-2.4-0.4-4.9,0-7.3-0.4c-2.6-0.4-5.2,0-7.7-0.4c-2.5-0.4-4.9,0-7.3-0.4
		c-2.5-0.4-5,0-7.5-0.4c-2.5-0.4-5,0-7.5-0.4c-2.5-0.4-5,0-7.5-0.4c-2.4-0.4-4.9,0-7.3-0.4c-2.6-0.4-5.2,0-7.7-0.4
		c-2.5-0.4-5,0-7.5-0.4c-2.6-0.4-5.3,0-7.9-0.4c-2.3-0.4-4.6,0-6.9-0.4c-2.5-0.4-5-0.1-7.5-0.4c-2.9-0.4-5.8-0.2-8.7-0.6
		c0.4,0,0.9-0.1,1.3-0.1c17.2,0,34.4,0,51.6,0c25.9,0,51.8,0,77.6,0c1.9,0,3.7-0.7,5.5-0.4C233.1,156.7,234.4,156.5,235.6,156.5z"/>
	<path fill="#FFFFFF" d="M124,105.9c-0.5,0-1,0-1.4,0c0-0.1,0-0.2,0-0.2c0.5,0,0.9-0.1,1.4-0.1C123.9,105.6,124,105.7,124,105.9z"/>
	<path fill="#FFFFFF" d="M0.8,119c0.1-0.5,0.2-0.7,0.3-1c0.1,0.2,0.1,0.4,0.2,0.5C1.3,118.7,1.1,118.8,0.8,119z"/>
	<path fill="#FFFFFF" d="M249.3,144c0-0.1,0-0.3,0-0.4c0,0,0.1,0,0.1,0c0,0.1,0,0.3,0,0.4C249.4,144,249.3,144,249.3,144z"/>
	<path fill="#FFFFFF" d="M228.3,142c-0.4,0.8-0.7,1.4-1.1,2.1c-3.5,2-7.1,2.1-10.3,0c-1.4-1.6-1.3-3.2-1.2-4.7
		c1-3.1,3.6-4.3,6.2-5.5c1.4,0.9,2.9,1.8,4.4,2.7c1.3,0.8,1.8,2,1.9,3.4C228.4,140.6,228.3,141.4,228.3,142z"/>
	<path fill="#FFFFFF" d="M219.5,119.3c1.2,0,2.4,0.1,3.7,0c1.3-0.1,2.3,0.4,3.2,1.4c0.2,0.2,0.5,0.5,0.7,0.7c0.2,0.5,0.5,1,0.5,1.6
		c0.2,1.3-0.4,2.4-1,3.5c-0.6,1-1.6,1.7-2.5,2.4c-0.4,0.3-0.7,0.5-1.1,0.8c-0.9,0.2-1.6-0.3-2.4-0.8c-1.3-0.7-2.5-1.4-3.2-2.8
		c-0.5-0.9-1.1-1.9-0.7-3c0.5-1.4,0.9-2.9,2.6-3.4C219.3,119.5,219.4,119.4,219.5,119.3z"/>
	<path fill="#FFFFFF" d="M194.7,119.3c1.1,0,2.5-0.2,3.7,0.4c0.9,0.4,1.7,0.8,2.2,1.9c0.6,1.4,1.3,2.7,1.5,4.3
		c0.2,1.1,0.2,2.1,0.3,3.2c0.1,0.9-0.2,1.9,0.4,2.8c0.2,0.3,0.2,0.8,0,1.1c-0.6,1.1-0.4,2.3-0.3,3.4c0.1,1.4-0.6,2.6-0.4,3.9
		c-0.7,0.9-0.9,2-1.5,3c-0.9,1.3-2.1,1.9-3.6,2c-1.1,0.1-2.2,0-3.2,0c-1.6-0.8-2.5-1.9-3.2-3.4c-0.3-0.6,0.2-1.5-0.6-1.9
		c-0.1-1.3-0.3-2.5-0.4-3.8c-0.1-2.8-0.1-5.6,0-8.4c0.1-1.7,0.5-3.3,1.1-4.8c0.6-1.5,1.7-2.4,3-3.2
		C193.9,119.5,194.2,119.5,194.7,119.3z"/>
	<path fill="#FFFFFF" d="M51.1,119.3c1,0.3,2.2-0.4,3.2,0.4c2.3,0.1,3,1.9,3.7,3.5c0.6,1.3,0.8,2.8,0.9,4.3c0.1,1.7,0.3,3.4,0.4,5.1
		c0.1,1.9-0.4,3.8-0.5,5.7c-0.1,1.8-0.8,3.7-2,5.2c-0.8,1-2,1.6-3.2,1.6c-1.1,0-2.2,0.1-3.4-0.2c-1.7-0.5-2.4-1.7-3-3.1
		c-0.9-2.1-1.2-4.4-1.2-6.8c0-2.2,0-4.4,0-6.7c0-1.8,0.5-3.5,0.9-5.1c0.4-1.6,1.6-2.8,3.1-3.6C50.3,119.6,50.6,119.5,51.1,119.3z"/>
	<path fill="#FFFFFF" d="M167.8,145.1c-0.1-0.1-0.1-0.2-0.2-0.2c-2.3-0.8-3.1-2.8-3.5-4.9c-0.4-1.8-0.8-3.7-0.8-5.6
		c0-1.9-0.2-3.8,0.1-5.7c0.3-1.9,0.2-3.8,1.1-5.6c0.4-0.8,0.9-1.6,1.4-2.4c0.6-0.8,1.5-1,2.4-1.3c2.5-0.8,5.4-0.1,6.8,2.7
		c0.7,1.5,1,3.1,1.3,4.8c0.5,2.8,0.3,5.7,0.3,8.5c-0.1,2.3-0.5,4.6-1.6,6.8c-0.5,0.9-1.2,1.7-2,2.3c-0.4,0.3-1,0.6-1.7,0.6
		C170.1,145.1,169,145.1,167.8,145.1z"/>
	<path fill="#FFFFFF" d="M73.4,142.7c0-0.4,0.1-0.7,0-0.9c-0.2-0.5-0.6-0.9-0.7-1.5c-0.2-1.1-0.3-2.2-0.4-3.4
		c-0.1-1.1-0.3-2.1-0.4-3.2c-0.1-1.1-0.2-2.2,0-3.3c0.4-2.4,0.3-4.8,1.1-7.2c0.8-2.1,2.8-4.1,5.3-4.1c1.4,0,2.6,0.2,3.7,1
		c1.1,0.8,1.9,1.8,2.2,3.2c0.2,1,0.4,2,0.7,3c0.5,1.7,0.2,3.4,0.3,5.1c0.1,1.7,0.2,3.4,0,5.1c-0.3,1.9-0.4,4-1.5,5.6
		c-0.6,0.9-1.5,1.6-2.4,2.4c-0.4,0.3-0.8,0.5-1.4,0.4c-1.1-0.1-2.2,0-3.6,0C75.4,144.5,74.5,143.6,73.4,142.7z"/>
	<path fill="#FFFFFF" d="M23.2,119.5c1.4-0.1,3-0.2,4.5-0.3c0.2,0.2,0.3,0.3,0.4,0.4c2.1,0.5,2.8,2.3,3.4,4c0.3,0.8,0.3,1.8,0.5,2.5
		c0.4,1.5,0.2,2.9,0.4,4.4c-2.7,2-5.8,1.8-8.4,1.7c-2.1-0.5-3.1-1.7-3.8-3.8c0-0.7,0-1.9,0-3.2c0-1.8,0.5-3.3,1.8-4.5
		C22.3,120.4,22.6,120.1,23.2,119.5z"/>
	<path fill="#FFFFFF" d="M181.7,29.8c1.4,0.7,2.5,1.4,3.1,2.9c0.1,1.4,0.1,3.1-0.9,4.5c-1,1.4-1.9,2.8-3.8,3.6c-0.8,0-1.9,0-2.9,0
		c-0.4-0.3-0.7-0.5-1.1-0.8c-1.1-0.6-1.5-1.5-1.6-2.8c0-1.4,0.3-2.6,1.2-3.8c0.9-1.3,1.7-2.6,3.4-3.3
		C180.1,29.7,180.9,30.1,181.7,29.8z"/>
	<path fill="#FFFFFF" d="M154.9,196.4c1.6-1.4,3.5-1.5,5.4-1.4c2.3,1.3,4.1,3.6,3.7,8.3c-1.2,1.8-3,2.7-5,3.3
		C157.7,203.3,156.3,199.8,154.9,196.4z"/>
	<path fill="#FFFFFF" d="M188.7,189.7c-2.6-2.9-5-5.6-7.5-8.4c0.7-1.4,2.2-1.9,3.4-2.8c1.2,0.1,2.4-0.2,3.6,0.5
		c1.8,1,2.8,2.6,3.6,4.4c0.2,0.5,0.5,1.2,0.3,1.6c-0.5,0.8-0.4,1.9-1.3,2.6C190.2,188.1,189.5,188.9,188.7,189.7z"/>
	<path fill="#FFFFFF" d="M72.6,27.3c0.9-0.6,1.8-1.2,2.6-1.7c0.5,0,1,0,1.7,0c0.4,0.5,0.8,1.1,1.3,1.7c0,0.5,0,1,0,1.7
		c-0.8,0.7-1.8,1.4-2.7,2.1C74,30.1,73.7,28.5,72.6,27.3z"/>
	<path fill="#FFFFFF" d="M128.7,208.6c-1.5,0-3,0-4.6,0c-0.4-1.2,0.7-2.2,0.9-3.4c0.2-1.1,0.7-2.2,1.2-3.3
		C127,204.2,127.8,206.4,128.7,208.6z"/>
	<path fill="#FFFFFF" d="M65.6,179.9c-0.8,2-1.7,4-2.5,6c-1.2-1-2.3-2-3.6-3.1c2.1-1.2,4-2.2,5.9-3.2
		C65.4,179.7,65.5,179.8,65.6,179.9z"/>
	<path fill="#FFFFFF" d="M171.9,189c1.7,1.4,3.4,2.7,5.1,4.1c-1,1.3-2.6,1.6-3.9,2.7C173,193.5,171.7,191.4,171.9,189z"/>
	<path fill="#FFFFFF" d="M171.8,189.1c-0.1-0.1-0.2-0.2-0.3-0.3c0,0,0.1-0.1,0.1-0.1C171.7,188.8,171.8,188.9,171.8,189.1
		C171.9,189.1,171.9,189.1,171.8,189.1z"/>
	<path fill="#FFFFFF" d="M146.7,22.3c-1.5-0.3-3-0.6-4.6-0.9c1.2-2.1,2.4-4.1,3.7-6.3c0.5,1.3,0,2.5,0.5,3.7
		C146.7,19.9,146.6,21.2,146.7,22.3z"/>
	<path fill="#FFFFFF" d="M92.7,195.4c-0.2,2.7-0.7,5-0.4,7.5c-1.6-0.6-3-1.2-4.4-1.7C89.5,199.3,91,197.5,92.7,195.4z"/>
</g>
</svg>
