<?xml version="1.0" encoding="utf-8"?>
<!-- Generator: Adobe Illustrator 18.0.0, SVG Export Plug-In . SVG Version: 6.00 Build 0)  -->
<!DOCTYPE svg PUBLIC "-//W3C//DTD SVG 1.1//EN" "http://www.w3.org/Graphics/SVG/1.1/DTD/svg11.dtd">
<svg version="1.1" id="Capa_1" xmlns="http://www.w3.org/2000/svg" xmlns:xlink="http://www.w3.org/1999/xlink" x="0px" y="0px"
	 viewBox="0 0 397.2 238" enable-background="new 0 0 397.2 238" xml:space="preserve">
<g>
	
		<image overflow="visible" opacity="0.8" width="203" height="166" xlink:href="BFF93471A5DB97B7.png"  transform="matrix(1 0 0 1 100.23 7.23)">
	</image>
	<g>
		<g>
			<path fill="#ED6D09" d="M279.1,9.1c23.1,59.1-16.4,123.7-78.9,123.7h-1.1h1.1h-1.1c-62.4,0-101.9-64.6-78.9-123.7l0.2,0.2
				C77.7,63.7,110.7,168,199.1,168h1.4C288.8,168,321.8,63.6,279,9.3L279.1,9.1z"/>
		</g>
	</g>
</g>
<g>
	
		<image overflow="visible" opacity="0.8" width="110" height="91" xlink:href="BFF93471A5DB97B5.png"  transform="matrix(1 0 0 1 147.23 23.23)">
	</image>
	<g>
		<g>
			<path fill="#714D22" d="M158.2,108.2c-12.1-31,8.7-65,41.5-65h0.6h-0.6h0.6c32.8,0,53.6,34,41.5,65l-0.1-0.1
				c22.4-28.5,5.2-83.4-41.3-83.4h-0.7c-46.4,0-63.7,54.8-41.3,83.4L158.2,108.2z"/>
		</g>
	</g>
</g>
<g>
	
		<image overflow="visible" opacity="0.8" width="40" height="40" xlink:href="BFF93471A5DB97BB.png"  transform="matrix(1 0 0 1 181.23 70.23)">
	</image>
	<g>
		<circle fill="#6CB530" cx="199.6" cy="88.5" r="16.5"/>
	</g>
</g>
<g>
	
		<image overflow="visible" opacity="0.8" width="373" height="50" xlink:href="BFF93471A5DB97BD.png"  transform="matrix(1 0 0 1 14.23 184.23)">
	</image>
	<g>
		<g>
			<path fill="#714D22" d="M15.2,186.3h5.5l2.5,15.5l0.5,2.8l0.9,6.1c0.2,1,0.3,1.9,0.4,2.9c0.1,0.8,0.2,1.7,0.3,2.3l0.3,2
				c0.1-0.5,0.1-0.8,0.1-1.1c0-0.4,0.1-0.6,0.1-0.8l0.7-4.9l0.9-6.4c0.1-0.6,0.2-1.1,0.3-1.6c0.1-0.5,0.2-0.9,0.3-1.3l2.7-15.5h5.3
				l-8.2,42h-4.3L15.2,186.3z"/>
			<path fill="#714D22" d="M47.4,186.3h4.4l9,42h-5.6l-1.6-8.2h-8.3l-1.6,8.2h-5.4L47.4,186.3z M52.7,215.8l-1.3-6.7
				c-0.8-4.5-1.5-9.4-2-14.6c-0.3,2.5-0.6,5.1-1,7.7c-0.4,2.6-0.8,5.4-1.4,8.2l-1,5.4L52.7,215.8L52.7,215.8z"/>
			<path fill="#714D22" d="M68.1,186.3h5.6v37.2H83v4.8H68.1V186.3z"/>
			<path fill="#714D22" d="M110.9,208.4c0,7.4-0.8,12.7-2.5,15.8c-1.7,3.1-4.4,4.7-8.3,4.7c-4.1,0-6.9-1.7-8.6-5.1
				c-1.7-3.3-2.5-9.1-2.5-17.5c0-7.5,0.8-12.7,2.5-15.9c1.7-3.1,4.4-4.7,8.4-4.7c3.5,0,6.1,1.2,7.8,3.6c1.1,1.6,1.9,3.9,2.5,6.9
				C110.7,199.1,110.9,203.1,110.9,208.4z M105,208.9c0-7.3-0.4-12.1-1-14.5c-0.6-2.4-2-3.6-4-3.6s-3.3,1.1-4.1,3.3
				c-0.6,2.2-1,6.6-1,13.3c0,6.2,0.4,10.4,1,12.8c0.7,2.2,2,3.4,4,3.4s3.2-1,3.9-3.1C104.6,218.4,105,214.6,105,208.9z"/>
			<path fill="#714D22" d="M119.7,186.3h7.5c3,0,5.4,0.7,6.9,2.2c1.9,1.9,2.9,4.8,2.9,8.8c0,3-0.5,5.4-1.5,7.3s-2.4,3-4.3,3.4
				l7.8,20.4h-5.7l-7.7-20.6v20.6h-5.6v-42.1H119.7z M125.4,205c2.2,0,3.8-0.6,4.6-1.6c0.9-1,1.4-2.8,1.4-5.2c0-1.3-0.1-2.4-0.3-3.3
				c-0.2-0.9-0.5-1.7-0.9-2.2c-0.4-0.6-0.9-1-1.6-1.3c-0.6-0.3-1.4-0.4-2.3-0.4h-0.9V205z"/>
			<path fill="#714D22" d="M168,186.3h4.4l9,42h-5.6l-1.6-8.2H166l-1.6,8.2H159L168,186.3z M173.5,215.8l-1.3-6.7
				c-0.8-4.5-1.5-9.4-2-14.6c-0.3,2.5-0.6,5.1-1,7.7c-0.4,2.6-0.8,5.4-1.4,8.2l-1,5.4L173.5,215.8L173.5,215.8z"/>
			<path fill="#714D22" d="M191.6,186.3h4.8l3.7,17.2c0.5,2.1,0.8,4.2,1.2,6.5c0.4,2.1,0.7,4.4,1,6.7c0-0.3,0.1-0.6,0.1-0.7
				s0-0.3,0.1-0.4l0.8-4.8l0.7-4.6l0.6-3l3.3-16.9h4.9l3.9,42h-5.4l-0.9-14.3c0-0.7-0.1-1.4-0.1-1.8c0-0.6,0-0.9,0-1.3l-0.3-5.6
				L210,200c0,0,0-0.1,0-0.3c0-0.1,0-0.3,0-0.5l-0.1,0.8c-0.2,1-0.3,1.8-0.4,2.6c-0.1,0.7-0.2,1.4-0.3,1.8l-1,4.1l-0.3,1.5
				l-3.5,18.4h-3.8l-3.3-15.9c-0.5-2.1-0.8-4.2-1.2-6.4c-0.4-2.1-0.6-4.4-0.9-6.7l-1.7,29h-5.4L191.6,186.3z"/>
			<path fill="#714D22" d="M224.7,186.3h7.7c6,0,9,3.7,9,11.2c0,2.9-0.4,5-1.2,6.4s-2.1,2.4-4.2,3.1c2.3,0.9,3.8,2,4.6,3.5
				c0.8,1.4,1.3,3.5,1.3,6.3c0,7.8-3.3,11.5-9.9,11.5h-7.4V186.3z M230,204.9c2.2,0,3.7-0.6,4.6-1.6c0.8-1.1,1.3-3,1.3-5.6
				c0-4.5-1.7-6.8-4.9-6.8h-0.5h-0.3c-0.2,0-0.3,0-0.3,0L230,204.9L230,204.9z M230,223.5c2.3,0,4-0.5,4.8-1.5
				c0.9-1,1.3-2.8,1.3-5.4c0-2.7-0.5-4.5-1.4-5.6s-2.5-1.7-4.8-1.7L230,223.5L230,223.5z"/>
			<path fill="#714D22" d="M250.8,186.3h5.6v42h-5.6V186.3z"/>
			<path fill="#714D22" d="M266,186.3H281v4.8h-9.4v13.3h8.3v4.8h-8.3v14.3h9.4v4.8H266V186.3z"/>
			<path fill="#714D22" d="M289.4,186.3h5.3l5.6,16.8c1.7,4.7,3,9.8,4.3,15.1c-0.5-3.2-0.8-6.2-1-8.9c-0.2-2.7-0.4-5.1-0.4-7.4
				v-15.7h5.7v42h-5.3l-6.4-18.9c-0.6-1.8-1.1-3.6-1.7-5.4c-0.6-1.8-1-3.8-1.4-5.8c0-0.3-0.1-0.6-0.2-0.9s-0.2-0.7-0.3-1.3
				c0.1,0.5,0.1,0.8,0.1,1.2s0.1,0.6,0.1,0.8l0.3,4.2l0.3,5.2c0,0.3,0,0.6,0,1c0,0.5,0,0.9,0,1.4l0.3,18.3h-5.5L289.4,186.3
				L289.4,186.3z"/>
			<path fill="#714D22" d="M316.2,186.3h18.5v5h-6.4v37.1h-5.5v-37.1h-6.6V186.3z"/>
			<path fill="#714D22" d="M346.2,186.3h4.4l9,42h-5.6l-1.6-8.2h-8.3l-1.6,8.2h-5.4L346.2,186.3z M351.7,215.8l-1.3-6.7
				c-0.8-4.5-1.5-9.4-2-14.6c-0.3,2.5-0.6,5.1-1,7.7c-0.4,2.6-0.8,5.4-1.4,8.2l-1,5.4L351.7,215.8L351.7,215.8z"/>
			<path fill="#714D22" d="M367,186.3h5.6v37.2h9.2v4.8H367V186.3z"/>
		</g>
	</g>
</g>
</svg>
